<svg width="270" height="123" viewBox="0 0 270 123" fill="none" xmlns="http://www.w3.org/2000/svg">
<path d="M46.2051 42.5897C46.8694 42.9385 47.5543 43.254 48.1955 43.6439C50.0859 44.7956 50.5989 46.1653 49.7807 48.1916C48.7778 50.6796 47.8185 53.201 46.5847 55.5736C45.1047 58.4207 42.5654 59.7955 39.3541 59.8238C35.2578 59.8597 31.159 59.8494 27.0602 59.8545C18.9497 59.8648 10.8393 59.8725 2.72882 59.8802C2.09527 59.8802 1.45916 59.8802 0.746094 59.8802C0.766614 59.5262 0.728139 59.2672 0.802523 59.0466C4.32423 48.6302 7.85876 38.2164 11.383 27.8001C12.5398 24.3835 12.5296 24.3733 16.1436 24.3681C27.7117 24.3553 39.2797 24.3374 50.8451 24.3656C51.7583 24.3656 52.715 24.5964 53.5743 24.9196C55.4262 25.6224 56.3804 27.3794 55.7802 29.2595C54.8491 32.1785 53.8051 35.0666 52.6509 37.9061C51.7557 40.1042 49.7243 41.0148 47.621 41.733C47.1516 41.8946 46.6873 42.069 46.2205 42.2357C46.2154 42.3512 46.2102 42.4666 46.2051 42.582V42.5897ZM45.0098 32.5017C44.0454 32.5017 43.2862 32.5017 42.5244 32.5017C35.7426 32.5171 28.9582 32.5222 22.1764 32.5761C21.7071 32.5786 20.9555 32.8249 20.8221 33.1532C20.0603 35.0282 19.4447 36.9622 18.7932 38.8397C19.001 38.9731 19.0728 39.0552 19.1421 39.0552C26.4369 39.0603 33.7316 39.0706 41.0264 39.0193C41.4676 39.0167 42.1012 38.6037 42.3089 38.2062C43.2477 36.3979 44.0659 34.528 45.0124 32.4991L45.0098 32.5017ZM39.7516 46.2166C38.2922 46.2166 37.0148 46.2166 35.74 46.2166C29.6816 46.2166 23.6205 46.2114 17.5621 46.2422C17.1029 46.2422 16.3488 46.3936 16.236 46.6757C15.5203 48.4661 14.9432 50.3128 14.2815 52.2622C15.705 52.2622 16.8926 52.2622 18.0827 52.2622C24.1002 52.2725 30.1176 52.3033 36.1325 52.2622C36.7147 52.2571 37.6253 51.957 37.8151 51.5363C38.5615 49.8819 39.0822 48.1249 39.7542 46.2166H39.7516Z" fill="white"/>
<path d="M247.289 59.9311C249.303 53.2801 251.26 46.8138 253.219 40.3475C253.153 40.2834 253.089 40.2218 253.022 40.1577C252.163 40.7938 251.301 41.4273 250.447 42.0686C243.549 47.2396 236.652 52.4131 229.755 57.5841C229.004 58.1484 228.216 58.6665 227.506 59.277C226.762 59.9182 226.323 59.7284 225.767 58.9948C222.691 54.9525 219.57 50.946 216.458 46.9292C214.891 44.9054 213.314 42.8868 211.736 40.8682C211.505 40.5732 211.262 40.2911 210.844 39.7858C209.871 42.9304 208.992 45.7596 208.122 48.5939C207.122 51.8565 206.098 55.114 205.157 58.3946C204.839 59.5027 204.357 59.9901 203.11 59.9465C200.091 59.8464 197.067 59.9131 193.966 59.9131C193.966 59.6823 193.915 59.4694 193.974 59.2898C196.285 52.2361 198.619 45.1902 200.907 38.1288C201.251 37.0643 201.82 36.6514 202.943 36.6514C222.671 36.6745 242.4 36.6693 262.13 36.6693C263.148 36.6693 264.167 36.6693 265.372 36.6693C264.97 38.0493 264.618 39.2574 264.262 40.4655C262.464 46.5624 260.648 52.6568 258.88 58.764C258.616 59.6771 258.162 59.9593 257.244 59.9465C254.007 59.9003 250.77 59.9285 247.292 59.9285L247.289 59.9311Z" fill="white"/>
<path d="M71.5604 36.6564C69.8573 41.8864 68.2388 46.8599 66.5664 51.9975C67.182 52.0258 67.6334 52.0642 68.0823 52.0642C80.3839 52.0719 92.6829 52.0796 104.985 52.0796C107.557 52.0796 107.555 52.0668 108.504 49.6301C110.053 45.6544 111.584 41.671 113.192 37.7183C113.372 37.2772 113.985 36.7283 114.408 36.7206C117.863 36.6462 121.323 36.6872 124.781 36.7C124.845 36.7 124.912 36.7898 124.994 36.8514C123.519 40.9733 122.049 45.0978 120.567 49.2197C119.874 51.1485 119.187 53.0774 118.453 54.9883C117.276 58.0483 115.096 59.4873 111.743 59.4462C103.074 59.3436 94.404 59.3718 85.7344 59.3616C77.919 59.3513 70.1035 59.3847 62.2855 59.3282C60.7208 59.318 59.1126 59.1692 57.6095 58.7665C55.1959 58.1201 54.334 56.4837 55.0471 54.0547C55.9731 50.9023 57.0273 47.7884 58.043 44.6643C58.8073 42.3122 59.5743 39.9576 60.4105 37.6286C60.5515 37.2387 61.0466 36.7052 61.3877 36.7C64.7145 36.6308 68.0413 36.659 71.5604 36.659V36.6564Z" fill="white"/>
<path d="M141.639 36.8236C139.995 41.8458 138.371 46.809 136.686 51.9569C137.363 51.9877 137.897 52.0364 138.43 52.0364C150.945 52.0544 163.462 52.0518 175.976 52.1082C177.233 52.1134 177.882 51.7209 178.328 50.5282C179.95 46.2139 181.689 41.9458 183.338 37.6444C183.63 36.88 184.007 36.6312 184.838 36.644C188.209 36.703 191.579 36.6697 195.014 36.6697C195.014 36.9723 195.07 37.1904 195.006 37.3673C193.044 42.8282 191.071 48.2864 189.099 53.7447C188.996 54.0268 188.886 54.3039 188.776 54.5809C187.27 58.3668 185.764 59.421 181.714 59.4159C165.568 59.3979 149.421 59.3825 133.275 59.3184C131.451 59.3107 129.589 59.1876 127.814 58.8003C125.334 58.259 124.392 56.5944 125.141 54.191C126.857 48.6917 128.66 43.218 130.505 37.7598C130.661 37.2981 131.372 36.7287 131.838 36.7184C134.955 36.6389 138.074 36.6979 141.19 36.7184C141.347 36.7184 141.503 36.7928 141.634 36.8261L141.639 36.8236Z" fill="white"/>
<path d="M131.922 33.314C132.845 30.6105 133.663 28.0609 134.625 25.5678C134.766 25.2036 135.587 24.9086 136.095 24.9086C146.342 24.8881 156.587 24.924 166.834 24.9317C176.824 24.9394 186.815 24.9317 196.803 24.9317C197.426 24.9317 198.049 24.9317 198.76 24.9317C197.855 27.6198 197.052 30.1309 196.133 32.5984C196.008 32.937 195.315 33.255 194.884 33.2601C188.78 33.3038 182.675 33.2858 176.57 33.2884C162.14 33.2961 147.709 33.3038 133.279 33.314C132.902 33.314 132.525 33.314 131.924 33.314H131.922Z" fill="white"/>
<path d="M128.492 25.0434C127.65 27.693 126.881 30.2503 125.981 32.7614C125.873 33.0641 125.05 33.2513 124.557 33.2539C118.922 33.2923 113.289 33.2898 107.654 33.2923C93.1824 33.2975 78.7134 33.2975 64.2418 33.3C63.5236 33.3 62.8054 33.3 62 33.3C62.0462 32.864 62.0257 32.5613 62.1154 32.2946C62.8028 30.2323 63.5339 28.1829 64.1982 26.113C64.4572 25.3076 64.8625 24.9613 65.7577 24.9639C86.2903 24.9716 106.82 24.9511 127.353 24.9434C127.722 24.9434 128.092 25.01 128.492 25.046V25.0434Z" fill="white"/>
<path d="M89.7005 19.3955C86.1146 19.3955 82.5288 19.3955 78.943 19.3955C78.4736 19.3955 77.9965 19.4134 77.5374 19.3313C74.9262 18.8568 74.0618 17.8206 75.5136 15.4454C77.4912 12.2058 79.4278 8.94319 81.39 5.69337C82.6109 3.67474 84.3602 2.59488 86.7687 2.60258C94.0686 2.6231 101.369 2.61797 108.668 2.62823C109.051 2.62823 109.458 2.61284 109.812 2.73083C112.09 3.50032 112.639 3.99023 111.528 6.03195C109.469 9.81528 107.33 13.555 105.231 17.3178C104.377 18.8491 102.982 19.3262 101.356 19.3313C97.4723 19.3442 93.5864 19.3365 89.703 19.3365C89.703 19.357 89.703 19.3775 89.703 19.398L89.7005 19.3955ZM83.7728 15.0196C88.7001 15.0196 93.2171 15.0427 97.7314 14.9811C98.1674 14.976 98.7548 14.5451 98.9985 14.145C100.35 11.9263 101.622 9.65882 102.908 7.40164C103.002 7.23749 103 7.0169 103.077 6.66293C102.551 6.66293 102.141 6.66293 101.733 6.66293C98.0649 6.66806 94.3944 6.75784 90.7316 6.63728C89.2798 6.58855 88.359 6.91686 87.6613 8.24039C86.4994 10.4463 85.1887 12.5701 83.7728 15.0196Z" fill="white"/>
<path d="M157.824 19.4447C158.168 18.7368 158.419 18.211 158.676 17.6903C160.23 14.5123 161.815 11.3471 163.329 8.146C163.839 7.06614 164.311 6.14275 165.755 6.65575C165.888 6.70192 166.076 6.59162 166.614 6.46851C165.755 5.19371 164.988 4.0523 164.083 2.70312H194.809C194.065 3.95996 193.482 5.13728 192.7 6.16327C192.426 6.52237 191.656 6.63779 191.112 6.64036C185.605 6.67883 180.096 6.75322 174.591 6.6301C172.914 6.59162 171.962 7.09436 171.498 8.77955H185.3C185.344 8.90523 185.39 9.03348 185.434 9.15916C182.863 10.2698 181.207 13.022 177.952 12.9245C175.648 12.8553 173.342 12.904 171.036 12.8835C169.21 12.8681 168.879 13.1323 168.397 15.174H188.011C187.386 16.5514 186.934 17.8313 186.224 18.9445C185.982 19.3216 185.082 19.4037 184.482 19.4062C177.054 19.4396 169.626 19.4344 162.195 19.4396C160.835 19.4396 159.476 19.4396 157.832 19.4396L157.824 19.4447Z" fill="white"/>
<path d="M218.864 13.5087C221.039 16.4071 222.994 19.0131 225.069 21.7807C222.342 21.7807 219.847 21.809 217.351 21.7448C217.041 21.7371 216.679 21.2729 216.448 20.9446C214.83 18.6412 213.278 16.2891 211.613 14.0217C211.269 13.5549 210.551 13.1496 209.979 13.1111C208.194 12.9931 206.393 12.9983 204.606 13.1034C204.08 13.1342 203.387 13.5395 203.115 13.9832C202.315 15.2862 201.635 16.6713 201.012 18.0718C200.599 19.0029 200.06 19.48 198.986 19.4492C196.857 19.3876 194.728 19.4312 192.512 19.4312C192.548 19.1824 192.527 18.967 192.609 18.8054C194.066 16.007 195.561 13.2291 196.99 10.4179C197.454 9.50221 198.065 9.12516 199.101 9.13029C204.821 9.15594 210.541 9.12516 216.258 9.11747C217.536 9.11747 218.09 8.54804 218.362 6.8372C218.038 6.80386 217.718 6.7423 217.4 6.7423C212.449 6.71409 207.496 6.67305 202.546 6.68587C201.638 6.68587 201.053 6.3909 200.522 5.65219C199.84 4.70315 199.004 3.86184 198.111 2.83328C198.57 2.7076 198.832 2.57422 199.091 2.57422C207.712 2.605 216.333 2.64604 224.956 2.69221C225.254 2.69221 225.556 2.70247 225.849 2.7589C227.167 3.01283 227.672 3.91314 227.116 5.1315C226.426 6.64227 225.69 8.13252 224.938 9.61507C223.745 11.9697 222.081 13.6754 218.862 13.5061L218.864 13.5087Z" fill="white"/>
<path d="M240.441 104.027C239.625 103.714 239.141 103.527 238.304 103.204C239.815 101.791 241.229 100.467 242.755 99.0385C240.498 97.8048 238.343 96.6275 236.188 95.4501C236.001 95.3476 235.816 95.2424 235.627 95.1423C233.472 93.983 233.482 93.9932 231.913 95.8939C231.274 96.6659 231.161 97.3328 231.679 98.3101C232.918 100.647 234.059 102.999 235.914 104.971C236.722 105.833 236.978 107.187 237.62 108.237C239.22 110.85 240.9 113.415 242.46 116.08C239.985 114.182 238.71 111.248 236.304 109.188C237.214 110.825 238.125 112.464 239.035 114.1C238.941 114.162 238.843 114.223 238.748 114.285C237.199 111.897 235.65 109.509 234.059 107.059C232.751 107.839 232.033 107.082 231.197 106.226C228.311 103.268 225.457 100.262 222.363 97.5303C220.462 95.8529 218.018 95.1706 215.389 95.0423C211.852 94.8679 208.33 94.4113 204.801 94.0753C204.808 93.9086 204.816 93.7444 204.826 93.5777H215.038C215.045 91.2051 214.412 88.8171 216.359 87.0755C216.889 86.601 217.608 86.3394 218.239 85.9777C218.334 86.0906 218.426 86.2034 218.521 86.3188C218.269 86.6677 217.933 86.9806 217.782 87.3679C217.372 88.4067 216.872 89.4532 216.725 90.5382C216.566 91.7053 217.408 92.4158 218.508 92.6774C219.626 92.9442 220.791 93.0365 221.891 93.3571C222.72 93.5982 223.458 94.1446 224.279 94.4319C224.946 94.6653 225.708 94.9166 226.37 94.8063C227.283 94.655 227.968 94.0189 228.068 92.9724C228.206 91.5027 228.355 90.0355 228.519 88.3657C229.566 89.7995 231.199 90.7742 229.976 93.1289C231.166 92.4645 231.551 91.8643 231.476 90.9666C231.366 89.6071 231.169 88.24 231.217 86.8831C231.246 86.0803 231.474 85.1159 231.974 84.5362C232.867 83.4974 233.128 82.3483 233.108 81.1043C233.069 78.8163 234.047 77.0054 235.511 75.3562C235.814 75.015 235.914 74.4943 236.106 74.0583C235.711 73.889 235.319 73.7146 234.924 73.5504C234.549 73.3939 234.172 73.2477 233.798 73.0964C233.805 72.963 233.813 72.8322 233.823 72.6988C234.316 72.6527 234.816 72.5219 235.296 72.5783C237.086 72.7835 238.643 72.3859 240.061 71.2086C240.572 70.7854 241.354 70.6392 242.039 70.4904C243.119 70.257 244.217 70.0492 245.317 69.9774C246.533 69.8953 247.846 69.7004 248.954 70.0569C250.265 70.4776 250.863 70.1236 251.345 69.0258C251.463 68.759 251.637 68.5154 251.912 68.0511C252.217 68.5538 252.44 68.9232 252.663 69.29C252.809 69.4388 252.953 69.585 253.099 69.7337C253.199 69.4182 253.428 69.0745 253.366 68.7924C253.31 68.5205 252.997 68.2307 252.725 68.087C251.499 67.4483 250.247 66.861 249.039 66.0273C250.455 66.3839 251.932 66.5993 253.261 67.1636C253.866 67.4201 254.682 68.5795 254.52 68.9565C254.159 69.8132 253.271 70.4596 252.553 71.147C252.302 71.3881 251.776 71.4163 251.627 71.6831C251.234 72.3885 250.719 72.309 250.242 71.9601C247.892 70.2416 245.417 70.9777 243.009 71.6421C241.457 72.0704 239.987 72.8066 238.499 73.4504C236.717 74.2224 236.329 75.5973 236.324 77.5287C236.319 79.8397 235.855 82.1738 235.36 84.4464C235.108 85.6007 235.114 86.3368 236.304 86.778C237.861 87.3551 238.61 88.3221 238.184 90.1124C237.863 91.4642 238.917 92.1798 239.923 92.8057C242.278 94.2703 244.671 95.6784 246.971 97.2251C247.687 97.7073 248.154 98.5615 248.736 99.2463C248.005 99.8311 247.343 100.539 246.533 100.975C244.435 102.106 242.27 103.119 240.446 104.022L240.441 104.027Z" fill="white"/>
<path d="M160.529 2.89686C151.715 8.38847 142.902 13.8826 133.943 19.4666C133.283 17.8532 132.681 16.3784 131.986 14.6752C130.262 16.2578 128.595 17.7865 126.743 19.4871C122.398 13.1516 118.155 6.97004 113.738 0.53709C116.755 0.53709 119.42 0.50631 122.082 0.575564C122.428 0.585824 122.844 1.06804 123.088 1.42714C124.616 3.68688 126.101 5.9774 127.612 8.24996C127.887 8.66292 128.225 9.03485 128.52 9.40677C130.275 8.28587 131.934 7.25219 133.56 6.16977C134.253 5.70808 134.738 5.70038 135.287 6.41344C136.01 7.35735 136.885 8.18327 137.623 9.11693C138.162 9.79921 138.634 9.81203 139.36 9.37855C142.764 7.34453 146.172 5.3105 149.645 3.3996C150.574 2.88917 151.731 2.61215 152.798 2.56342C155.375 2.44543 157.961 2.52494 160.541 2.52494C160.539 2.64806 160.534 2.77118 160.531 2.8943L160.529 2.89686Z" fill="white"/>
<path d="M38.4141 19.3826C40.4763 16.0584 42.3692 12.9214 44.3802 9.86398C44.6649 9.4305 45.5242 9.1817 46.1218 9.174C52.2675 9.10988 58.4132 9.11244 64.5588 9.09449C66.6236 9.08936 66.6544 9.06371 67.4957 6.904C67.1982 6.87065 66.9237 6.81423 66.6519 6.81423C61.1038 6.80397 55.5558 6.78088 50.0077 6.81423C48.9484 6.81936 48.243 6.48847 47.73 5.542C47.235 4.6263 46.6066 3.78499 45.8345 2.60254C46.8656 2.60254 47.5659 2.60254 48.2661 2.60254C57.2281 2.62562 66.1902 2.63845 75.1522 2.68205C77.4966 2.69488 78.0557 3.68496 76.8733 5.75489C75.9217 7.41956 74.8777 9.03293 73.8209 10.6309C72.9489 11.9493 71.7023 12.7701 70.0966 12.8009C65.5335 12.8855 60.9704 12.9163 56.4048 12.965C55.3814 12.9753 54.3323 13.1035 53.3371 12.9368C51.3774 12.6059 50.2309 13.4344 49.4563 15.1401C48.9458 16.2636 48.3251 17.3409 47.6762 18.3925C47.4299 18.7927 46.9734 19.3287 46.5989 19.339C43.9339 19.4211 41.2637 19.3826 38.4141 19.3826Z" fill="white"/>
<path d="M177.391 83.3726C177.65 84.7885 178.625 85.186 179.823 85.0373C181.059 84.8859 181.957 85.3271 182.719 86.2146C182.713 86.3044 182.739 86.4224 182.695 86.4634C181.213 87.7946 177.594 88.2537 175.962 87.3278C173.338 85.835 172.433 83.8651 172.884 81.0667C174.27 72.4612 185.276 66.4592 193.332 71.3916C193.999 71.7994 194.664 72.5664 194.864 73.2948C195.189 74.4824 195.769 74.5055 196.726 74.249C199.655 73.4641 202.559 73.6283 205.416 74.626C205.775 74.7517 206.119 74.9313 206.46 75.1031C206.596 75.1724 206.709 75.2852 206.77 75.711C205.111 75.5597 203.451 75.3801 201.787 75.2622C200.471 75.1698 199.142 75.039 197.831 75.1211C195.305 75.2801 193.704 76.7601 192.799 79.0455C192.442 79.9458 192.165 80.8769 191.852 81.7926C191.745 81.7798 191.637 81.7669 191.532 81.7567C191.606 81.2437 191.665 80.7281 191.755 80.2177C191.799 79.9663 191.924 79.7303 191.965 79.479C192.106 78.6325 193.027 77.7527 191.883 76.9473C191.16 76.4369 188.99 76.501 188.197 77.0653C188.025 77.1885 187.833 77.3167 187.72 77.4886C185.407 81.059 181.641 82.0875 177.881 83.1341C177.725 83.1777 177.581 83.2751 177.383 83.37L177.391 83.3726ZM176.978 82.7775C179.12 80.8102 181.113 78.9788 183.108 77.1474C180.138 77.6194 177.381 80.2279 176.978 82.7775Z" fill="white"/>
<path d="M231.94 33.1598C231.348 33.2085 230.978 33.265 230.612 33.2675C223.576 33.2983 216.538 33.3009 209.502 33.365C208.358 33.3753 207.578 33.029 206.937 32.0748C205.395 29.7817 203.782 27.5348 202.133 25.175C202.438 25.0801 202.656 24.9519 202.877 24.9493C210.466 24.9416 218.056 24.9339 225.646 24.9775C226.167 24.9801 226.91 25.2263 227.17 25.6136C228.775 28.0145 230.273 30.4871 231.94 33.1547V33.1598Z" fill="white"/>
<path d="M269.925 24.9686C268.927 27.6054 268.037 30.0857 267.018 32.5122C266.857 32.8969 266.128 33.2586 265.659 33.2637C258.231 33.3176 250.803 33.3124 243.375 33.3201C241.984 33.3201 240.597 33.3201 238.996 33.3201C239.306 32.9867 239.468 32.7635 239.676 32.5968C242.3 30.4833 244.96 28.4133 247.55 26.2588C248.715 25.2892 249.851 24.866 251.459 24.907C257.346 25.066 263.24 24.9686 269.129 24.9686C269.337 24.9686 269.545 24.9686 269.922 24.9686H269.925Z" fill="white"/>
<path d="M211.577 87.2111C206.135 92.3949 199.863 93.426 193.004 92.972C194.938 95.5498 196.793 98.0173 198.647 100.487C198.524 100.644 198.401 100.803 198.278 100.959C197.655 100.641 196.96 100.416 196.421 99.9898C194.477 98.4585 192.65 96.7708 190.65 95.319C189.552 94.5213 188.211 94.0416 186.951 93.485C186.3 93.1952 185.451 93.1747 185.556 92.1461C185.648 91.2535 186.184 90.8329 187.061 90.6841C188.767 90.3994 190.529 90.2403 192.14 89.6658C193.43 89.2041 194.554 88.2448 195.703 87.4368C196.536 86.8494 197.339 86.7392 198.183 87.3111C200.061 88.5808 201.884 88.4603 203.788 87.2958C204.603 86.7982 205.601 86.2646 206.494 86.3005C208.086 86.3621 209.661 86.8418 211.577 87.2111Z" fill="white"/>
<path d="M240.378 90.7294C241.416 90.5472 242.448 90.2779 243.494 90.2061C244.428 90.142 244.992 90.1009 244.853 88.8492C244.761 88.0156 245.225 87.1204 245.441 86.2535C245.615 86.274 245.792 86.2945 245.967 86.315C245.967 86.7665 246.038 87.2307 245.954 87.6642C245.643 89.2545 245.851 89.5033 247.467 89.6726C248.214 89.7495 248.96 89.9573 249.668 90.2087C250.758 90.596 251.245 90.3292 251.469 89.1801C251.594 88.5312 251.82 87.9002 252.002 87.2615C252.133 87.2795 252.264 87.2974 252.392 87.3154C252.561 87.7104 252.73 88.108 252.9 88.503C253.226 87.0486 252.592 85.6456 253.282 84.1451C253.882 82.8421 253.377 81.0697 255.116 79.877C255.026 81.3698 254.998 82.6625 254.859 83.945C254.765 84.8222 254.798 85.5404 255.726 85.9739C255.998 86.1021 256.327 86.4382 256.355 86.7075C256.547 88.526 257.981 89.0134 259.322 89.6726C260.438 90.2215 261.492 90.8986 262.572 91.5194C262.562 91.6733 262.549 91.8297 262.539 91.9836C260.815 92.9609 259.092 93.9381 257.368 94.918C257.245 94.7641 257.119 94.6127 256.996 94.4588C257.717 93.638 258.438 92.8198 259.248 91.8964C257.819 91.2603 256.491 90.6139 255.113 90.0958C254.818 89.9855 254.193 90.2266 253.998 90.5036C253.756 90.8422 253.623 91.4681 253.774 91.8297C254.051 92.4812 254.567 93.0353 254.993 93.6201C256.491 95.6721 257.996 97.7215 259.376 99.9402C258.497 99.2194 257.624 98.491 256.732 97.783C256.142 97.3162 255.529 96.8776 254.921 96.4313C253.928 95.7028 252.82 95.0949 251.961 94.2357C249.768 92.0426 247.321 90.6858 244.099 91.0269C242.891 91.1551 241.66 91.0474 240.439 91.0474C240.419 90.9422 240.396 90.8345 240.375 90.7294H240.378Z" fill="white"/>
<path d="M225.054 64.7237C228.698 63.3258 232.433 64.8391 236.262 64.3492C235.408 63.7054 234.552 63.0616 233.698 62.4178C233.751 62.2998 233.803 62.1792 233.857 62.0612C235.134 62.3998 236.411 62.7358 237.689 63.0744C237.966 61.2404 237.95 61.2892 239.653 62.0869C240.649 62.5537 241.757 62.7743 242.772 63.2027C243.957 63.7028 245.099 64.3082 246.261 64.8673C246.209 64.9956 246.158 65.1238 246.107 65.2521C245.304 65.1238 244.504 64.9956 243.778 64.8801C243.683 65.2187 243.601 65.8292 243.501 65.8317C242.898 65.8471 241.849 65.8805 241.757 65.6214C241.174 63.9773 239.887 64.4928 238.853 64.6134C236.976 64.8314 235.124 65.2521 233.22 65.5958C233.431 65.8446 233.71 66.1806 234.208 66.7731C232.292 67.7401 230.571 68.9097 228.67 69.4843C226.575 70.1178 224.317 70.4077 222.124 70.4461C220.855 70.4692 219.536 69.7767 218.315 69.2355C217.987 69.0893 217.831 68.3198 217.82 67.8324C217.818 67.6862 218.659 67.2887 218.964 67.4015C221.706 68.4249 224.061 67.1912 226.477 66.2447C227.259 65.9395 228.062 65.6804 228.88 65.3906C227.616 65.2905 226.341 65.1879 225.069 65.0853C225.064 64.9648 225.059 64.8442 225.054 64.7237Z" fill="white"/>
<path d="M227.323 70.8583C227.051 71.3636 226.944 71.7253 226.713 71.9689C225.664 73.0847 224.494 74.0979 223.527 75.2777C222.047 77.0809 220.182 77.7606 217.964 77.3605C216.261 77.0527 214.583 76.5654 212.921 76.0652C212.559 75.9549 212.313 75.4522 212.016 75.1315C212.418 74.8597 212.801 74.4082 213.231 74.3518C214.581 74.1774 215.95 74.1466 217.31 74.0696C217.602 74.0517 217.895 74.0696 218.29 73.8285C216.725 72.9436 215.16 72.0613 213.573 71.1635C215.235 70.2914 216.848 70.217 218.641 70.6864C221.116 71.3328 223.666 71.6663 226.213 70.8686C226.469 70.789 226.774 70.8583 227.321 70.8583H227.323Z" fill="white"/>
<path d="M243.682 78.2662C244.446 78.3252 245.213 78.3867 246.285 78.4714C245.847 78.084 245.6 77.9327 245.457 77.7147C245.331 77.5249 245.216 77.2068 245.293 77.035C245.367 76.8708 245.703 76.7195 245.911 76.7349C247.565 76.8452 248.799 76.4399 249.935 74.9804C250.771 73.9031 252.274 74.7342 253.449 75.083C253.511 75.2138 253.575 75.3421 253.636 75.4729C252.767 76.0705 251.859 76.6194 251.043 77.2838C250.574 77.666 250.112 78.179 249.889 78.7304C248.927 81.1107 245.924 82.5163 243.543 81.5878C243.2 81.4544 242.933 81.121 242.715 80.5695C243.474 80.4746 244.236 80.3797 245.162 80.2668C244.462 79.6205 243.964 79.1588 243.466 78.6971C243.538 78.5534 243.61 78.4098 243.682 78.2662Z" fill="white"/>
<path d="M201.449 94.0647C202.342 94.1058 203.055 93.9621 203.601 94.2007C205.107 94.8547 206.564 95.6319 207.995 96.4373C208.934 96.9657 209.403 97.707 208.585 98.4508C209.329 99.187 210.111 99.7949 210.64 100.577C210.834 100.864 210.586 101.811 210.26 102.021C209.508 102.501 209.46 101.711 209.242 101.213C208.806 100.223 208.493 99.0895 207.141 98.9202C207.025 98.9048 206.874 98.8279 206.82 98.733C205.694 96.7913 203.806 95.7935 201.944 94.7573C201.819 94.6854 201.754 94.5008 201.449 94.0698V94.0647Z" fill="white"/>
<path d="M253.828 79.0072C255.639 78.3608 257.442 77.6965 259.266 77.086C259.645 76.9603 260.094 77.027 260.512 77.0399C261.785 77.086 262.241 76.6731 262.344 75.0469C262.885 75.3547 263.531 75.5086 263.662 75.8574C263.78 76.1678 263.434 76.8321 263.101 77.0886C262.67 77.4169 261.992 77.7427 261.515 77.6375C259.399 77.1758 257.714 78.1171 255.967 79.0303C255.362 79.3483 254.616 79.3996 253.936 79.5741C253.9 79.3843 253.864 79.1944 253.828 79.0046V79.0072Z" fill="white"/>
<path d="M242.946 122.871C243.208 121.986 243.764 121.093 243.587 120.383C243.436 119.775 242.443 119.374 241.633 118.731C243 118.551 244.213 118.241 244.903 119.439C245.262 120.062 245.462 121.047 245.226 121.675C244.875 122.601 243.9 122.963 242.946 122.871Z" fill="white"/>
<path d="M253.156 74.0805C255.57 72.7442 257.358 73.3675 259.169 74.8167C258.715 74.9219 258.25 75.1347 257.804 75.1065C256.642 75.0347 255.483 74.8885 254.334 74.7038C253.987 74.6474 253.677 74.3653 253.156 74.078V74.0805Z" fill="white"/>
<path d="M200.176 108.866C200.351 107.679 200.758 106.535 200.61 105.47C200.458 104.396 199.758 103.4 199.266 102.303C199.458 102.292 199.648 102.246 199.668 102.285C200.44 103.811 201.377 105.288 201.9 106.899C202.287 108.089 201.497 108.769 200.176 108.866Z" fill="white"/>
<path d="M67.6484 68.2949H73.5325V69.7518H69.8056V72.4451H72.7681V73.902H69.8056V77.0338H73.5325V78.4907H67.6484V68.2975V68.2949Z" fill="white"/>
<path d="M75.3619 68.2949H78.068L80.1661 74.397H80.2046V68.2949H82.1283V78.4881H79.9122L77.3216 71.0471H77.2831V78.4881H75.3594V68.2949H75.3619Z" fill="white"/>
<path d="M84.3281 68.2949H90.2122V69.7518H86.4853V72.4451H89.4478V73.902H86.4853V77.0338H90.2122V78.4907H84.3281V68.2975V68.2949Z" fill="white"/>
<path d="M92.0325 68.2977H95.231C96.3416 68.2977 97.1547 68.4901 97.6626 68.8723C98.173 69.257 98.4269 69.8444 98.4269 70.6421V71.268C98.4269 72.3273 97.955 72.9968 97.0137 73.2763V73.3046C97.5369 73.4226 97.9063 73.6585 98.1217 74.0176C98.3372 74.3767 98.4449 74.8564 98.4449 75.4591V77.2495C98.4449 77.5419 98.4577 77.7753 98.4834 77.9549C98.509 78.1344 98.5757 78.3114 98.6783 78.4858H96.4801C96.4006 78.3216 96.3493 78.1652 96.3237 78.019C96.298 77.8728 96.2852 77.6112 96.2852 77.2315V75.3668C96.2852 74.9 96.1826 74.5768 95.98 74.3921C95.7773 74.2074 95.4285 74.1151 94.9309 74.1151H94.1845V78.4832H92.0273V68.29L92.0325 68.2977ZM94.9745 72.6685C95.4054 72.6685 95.7286 72.5864 95.9466 72.4222C96.1646 72.2581 96.2698 71.981 96.2698 71.5912V70.8037C96.2698 70.4344 96.1826 70.1676 96.0056 70.0034C95.8286 69.8393 95.5516 69.7546 95.172 69.7546H94.1922V72.6685H94.9771H94.9745Z" fill="white"/>
<path d="M101.191 77.9746C100.642 77.5334 100.367 76.8999 100.367 76.074V70.7157C100.367 69.8898 100.642 69.2563 101.191 68.8151C101.739 68.3739 102.537 68.1533 103.584 68.1533C104.63 68.1533 105.428 68.3739 105.977 68.8151C106.526 69.2563 106.8 69.8898 106.8 70.7157V71.5904H104.761V70.6157C104.761 69.9462 104.389 69.6102 103.643 69.6102C102.896 69.6102 102.524 69.9462 102.524 70.6157V76.1945C102.524 76.8537 102.896 77.1846 103.643 77.1846C104.389 77.1846 104.761 76.8537 104.761 76.1945V74.199H103.681V72.7421H106.8V76.0765C106.8 76.9024 106.526 77.536 105.977 77.9772C105.428 78.4183 104.63 78.6389 103.584 78.6389C102.537 78.6389 101.739 78.4183 101.191 77.9772V77.9746Z" fill="white"/>
<path d="M110.472 74.1531L107.863 68.2998H110.159L111.631 72.0421H111.67L113.142 68.2998H115.24L112.632 74.1531V78.493H110.474V74.1531H110.472Z" fill="white"/>
<path d="M120.539 68.2949H123.835C124.907 68.2949 125.713 68.5078 126.249 68.9362C126.785 69.3645 127.054 69.9904 127.054 70.8137V75.9693C127.054 76.7952 126.785 77.4211 126.249 77.8469C125.713 78.2752 124.907 78.4881 123.835 78.4881H120.539V68.2949ZM123.794 77.0338C124.148 77.0338 124.417 76.9568 124.607 76.8004C124.797 76.6439 124.892 76.3925 124.892 76.0437V70.7419C124.892 70.3931 124.797 70.1391 124.607 69.9852C124.417 69.8288 124.145 69.7518 123.794 69.7518H122.696V77.0338H123.794Z" fill="white"/>
<path d="M129.091 68.2977H132.29C133.4 68.2977 134.213 68.4901 134.721 68.8723C135.232 69.257 135.486 69.8444 135.486 70.6421V71.268C135.486 72.3273 135.014 72.9968 134.072 73.2763V73.3046C134.595 73.4226 134.965 73.6585 135.18 74.0176C135.396 74.3767 135.503 74.8564 135.503 75.4591V77.2495C135.503 77.5419 135.516 77.7753 135.542 77.9549C135.568 78.1344 135.634 78.3114 135.737 78.4858H133.539C133.459 78.3216 133.408 78.1652 133.382 78.019C133.357 77.8728 133.344 77.6112 133.344 77.2315V75.3668C133.344 74.9 133.241 74.5768 133.039 74.3921C132.836 74.2074 132.487 74.1151 131.989 74.1151H131.243V78.4832H129.086V68.29L129.091 68.2977ZM132.033 72.6685C132.464 72.6685 132.787 72.5864 133.005 72.4222C133.223 72.2581 133.328 71.981 133.328 71.5912V70.8037C133.328 70.4344 133.241 70.1676 133.064 70.0034C132.887 69.8393 132.61 69.7546 132.231 69.7546H131.251V72.6685H132.036H132.033Z" fill="white"/>
<path d="M137.582 68.2949H139.739V78.4881H137.582V68.2949Z" fill="white"/>
<path d="M141.944 68.2949H144.65L146.748 74.397H146.787V68.2949H148.71V78.4881H146.494L143.904 71.0471H143.865V78.4881H141.941V68.2949H141.944Z" fill="white"/>
<path d="M150.901 68.2949H153.058V72.5913L155.805 68.2949H157.962L155.392 72.0372L158.001 78.4881H155.744L153.92 73.9456L153.056 75.2409V78.4881H150.898V68.2949H150.901Z" fill="white"/>
<path d="M196.883 112.467C198.422 111.869 199.389 110.935 199.353 109.225C200.959 110.448 201.048 110.874 200.112 112.002C198.968 113.385 198.111 113.572 196.885 112.467H196.883Z" fill="white"/>
<path d="M233.457 108.753C233.277 110.374 231.276 111.454 230.107 110.743C229.871 110.6 229.766 110.238 229.602 109.979C229.835 109.848 230.056 109.666 230.307 109.594C231.302 109.31 232.308 109.058 233.457 108.755V108.753Z" fill="white"/>
<path d="M260.48 101.56C260.87 101.932 261.318 102.263 261.616 102.696C261.711 102.835 261.403 103.248 261.28 103.533C261.054 103.351 260.744 103.215 260.621 102.979C260.434 102.62 260.375 102.194 260.262 101.794C260.334 101.714 260.408 101.637 260.48 101.558V101.56Z" fill="white"/>
</svg>
