<?xml version="1.0" encoding="iso-8859-1"?>
<!-- Uploaded to: SVG Repo, www.svgrepo.com, Generator: SVG Repo Mixer Tools -->
<svg version="1.1" id="Layer_1" xmlns="http://www.w3.org/2000/svg" xmlns:xlink="http://www.w3.org/1999/xlink" 
	 viewBox="0 0 512 512" xml:space="preserve">
<rect x="173.09" y="173.1" style="fill:#FFFFFF;" width="331.62" height="165.81"/>
<rect x="173.09" y="7.286" style="fill:#259245;" width="331.62" height="165.81"/>
<rect x="173.09" y="338.9" style="fill:#333333;" width="331.62" height="165.81"/>
<rect x="7.286" y="7.286" style="fill:#ED1F34;" width="165.81" height="497.43"/>
<path d="M504.713,0H7.286C3.262,0,0,3.262,0,7.286v497.427C0,508.738,3.262,512,7.286,512h497.427c4.024,0,7.287-3.262,7.287-7.286
	V7.286C512,3.262,508.738,0,504.713,0z M497.427,165.809H240.314c-4.024,0-7.287,3.262-7.287,7.287c0,4.024,3.262,7.286,7.287,7.286
	h257.113v151.236H180.382V180.382h26.77c4.024,0,7.286-3.262,7.286-7.286s-3.262-7.287-7.286-7.287h-26.77V14.573h317.045V165.809z
	 M14.573,14.573h151.236v482.854H14.573V14.573z M180.382,497.427V346.191h317.045v151.236H180.382z"/>
</svg>